<svg width="100%"
 viewBox="0.00 0.00 646.30 369.80" xmlns="http://www.w3.org/2000/svg" xmlns:xlink="http://www.w3.org/1999/xlink">
<g id="graph0" class="graph" transform="scale(1 1) rotate(0) translate(14.4 355.4)">
<title>GroupHierarchy</title>
<polygon fill="white" stroke="transparent" points="-14.4,14.4 -14.4,-355.4 631.9,-355.4 631.9,14.4 -14.4,14.4"/>
<g id="clust1" class="cluster">
<title>cluster_group</title>
<path fill="white" stroke="#9ca3af" stroke-dasharray="5,2" d="M20,-8C20,-8 400,-8 400,-8 406,-8 412,-14 412,-20 412,-20 412,-321 412,-321 412,-327 406,-333 400,-333 400,-333 20,-333 20,-333 14,-333 8,-327 8,-321 8,-321 8,-20 8,-20 8,-14 14,-8 20,-8"/>
<text text-anchor="middle" x="210" y="-320.2" font-family="Helvetica,sans-Serif" font-size="11.00" fill="#374151">Connected group for large exposures: 23.5m in total</text>
</g>
<g id="node1" class="node">
<title>H</title>
<path fill="#1e3a8a" stroke="#1e3a8a" d="M350,-298.5C350,-298.5 216,-298.5 216,-298.5 210,-298.5 204,-292.5 204,-286.5 204,-286.5 204,-261.5 204,-261.5 204,-255.5 210,-249.5 216,-249.5 216,-249.5 350,-249.5 350,-249.5 356,-249.5 362,-255.5 362,-261.5 362,-261.5 362,-286.5 362,-286.5 362,-292.5 356,-298.5 350,-298.5"/>
<text text-anchor="middle" x="283" y="-283.9" font-family="Helvetica,sans-Serif" font-size="12.00" fill="white">Northwind Holdings plc</text>
<text text-anchor="middle" x="283" y="-270.9" font-family="Helvetica,sans-Serif" font-size="12.00" fill="white">ultimate parent, UK</text>
<text text-anchor="middle" x="283" y="-257.9" font-family="Helvetica,sans-Serif" font-size="12.00" fill="white">exposure 2.0m</text>
</g>
<g id="node2" class="node">
<title>L</title>
<path fill="#eef2ff" stroke="#6366f1" d="M164.5,-178.5C164.5,-178.5 29.5,-178.5 29.5,-178.5 23.5,-178.5 17.5,-172.5 17.5,-166.5 17.5,-166.5 17.5,-141.5 17.5,-141.5 17.5,-135.5 23.5,-129.5 29.5,-129.5 29.5,-129.5 164.5,-129.5 164.5,-129.5 170.5,-129.5 176.5,-135.5 176.5,-141.5 176.5,-141.5 176.5,-166.5 176.5,-166.5 176.5,-172.5 170.5,-178.5 164.5,-178.5"/>
<text text-anchor="middle" x="97" y="-163.9" font-family="Helvetica,sans-Serif" font-size="12.00">Northwind Logistics Ltd</text>
<text text-anchor="middle" x="97" y="-150.9" font-family="Helvetica,sans-Serif" font-size="12.00">exposure 12.0m</text>
<text text-anchor="middle" x="97" y="-137.9" font-family="Helvetica,sans-Serif" font-size="12.00">(three facilities)</text>
</g>
<g id="edge1" class="edge">
<title>H&#45;&gt;L</title>
<path fill="none" stroke="#4b5563" d="M240.3,-249.5C226.94,-241.91 212.23,-233.3 199,-225 177.91,-211.77 155.01,-196.17 136.27,-183.06"/>
<polygon fill="#4b5563" stroke="#4b5563" points="137.21,-180.73 130.07,-178.72 134.4,-184.74 137.21,-180.73"/>
<text text-anchor="middle" x="229" y="-211.5" font-family="Helvetica,sans-Serif" font-size="10.00" fill="#374151"> owns 100%</text>
</g>
<g id="node3" class="node">
<title>P</title>
<path fill="#eef2ff" stroke="#6366f1" d="M345.5,-172C345.5,-172 210.5,-172 210.5,-172 204.5,-172 198.5,-166 198.5,-160 198.5,-160 198.5,-148 198.5,-148 198.5,-142 204.5,-136 210.5,-136 210.5,-136 345.5,-136 345.5,-136 351.5,-136 357.5,-142 357.5,-148 357.5,-148 357.5,-160 357.5,-160 357.5,-166 351.5,-172 345.5,-172"/>
<text text-anchor="middle" x="278" y="-157.4" font-family="Helvetica,sans-Serif" font-size="12.00">Northwind Property Ltd</text>
<text text-anchor="middle" x="278" y="-144.4" font-family="Helvetica,sans-Serif" font-size="12.00">exposure 5.0m</text>
</g>
<g id="edge2" class="edge">
<title>H&#45;&gt;P</title>
<path fill="none" stroke="#4b5563" d="M272.1,-249.06C269.2,-241.52 266.46,-233.06 265,-225 262.22,-209.67 265.33,-192.47 269.2,-178.95"/>
<polygon fill="#4b5563" stroke="#4b5563" points="271.55,-179.66 271.27,-172.25 266.86,-178.22 271.55,-179.66"/>
<text text-anchor="middle" x="292" y="-211.5" font-family="Helvetica,sans-Serif" font-size="10.00" fill="#374151"> owns 75%</text>
</g>
<g id="edge6" class="edge">
<title>H&#45;&gt;P</title>
<path fill="none" stroke="#065f46" stroke-dasharray="5,2" d="M306.9,-249.41C317.36,-236.15 326.04,-219.08 320,-203 316.46,-193.58 310.15,-184.81 303.47,-177.4"/>
<polygon fill="#065f46" stroke="#065f46" points="304.94,-175.39 298.33,-172.01 301.39,-178.77 304.94,-175.39"/>
<text text-anchor="middle" x="351" y="-217" font-family="Helvetica,sans-Serif" font-size="10.00" fill="#065f46"> guarantees</text>
<text text-anchor="middle" x="351" y="-206" font-family="Helvetica,sans-Serif" font-size="10.00" fill="#065f46"> P&#39;s loan</text>
</g>
<g id="node6" class="node">
<title>A</title>
<path fill="#6b7280" stroke="#6b7280" d="M605.5,-185C605.5,-185 432.5,-185 432.5,-185 426.5,-185 420.5,-179 420.5,-173 420.5,-173 420.5,-135 420.5,-135 420.5,-129 426.5,-123 432.5,-123 432.5,-123 605.5,-123 605.5,-123 611.5,-123 617.5,-129 617.5,-135 617.5,-135 617.5,-173 617.5,-173 617.5,-179 611.5,-185 605.5,-185"/>
<text text-anchor="middle" x="519" y="-170.4" font-family="Helvetica,sans-Serif" font-size="12.00" fill="white">Harbour Fuels Ltd</text>
<text text-anchor="middle" x="519" y="-157.4" font-family="Helvetica,sans-Serif" font-size="12.00" fill="white">30% associate, not controlled</text>
<text text-anchor="middle" x="519" y="-144.4" font-family="Helvetica,sans-Serif" font-size="12.00" fill="white">exposure 4.0m</text>
<text text-anchor="middle" x="519" y="-131.4" font-family="Helvetica,sans-Serif" font-size="12.00" fill="white">(own group)</text>
</g>
<g id="edge4" class="edge">
<title>H&#45;&gt;A</title>
<path fill="none" stroke="#4b5563" stroke-dasharray="5,2" d="M334.04,-249.49C350.39,-241.82 368.52,-233.18 385,-225 408.43,-213.38 433.91,-200.2 456.31,-188.43"/>
<polygon fill="#4b5563" stroke="#4b5563" points="457.49,-190.58 462.54,-185.16 455.21,-186.25 457.49,-190.58"/>
<text text-anchor="middle" x="453" y="-211.5" font-family="Helvetica,sans-Serif" font-size="10.00" fill="#374151"> owns 30%</text>
</g>
<g id="node4" class="node">
<title>F</title>
<path fill="#eef2ff" stroke="#6366f1" d="M172,-65C172,-65 28,-65 28,-65 22,-65 16,-59 16,-53 16,-53 16,-28 16,-28 16,-22 22,-16 28,-16 28,-16 172,-16 172,-16 178,-16 184,-22 184,-28 184,-28 184,-53 184,-53 184,-59 178,-65 172,-65"/>
<text text-anchor="middle" x="100" y="-50.4" font-family="Helvetica,sans-Serif" font-size="12.00">Northwind Freight GmbH</text>
<text text-anchor="middle" x="100" y="-37.4" font-family="Helvetica,sans-Serif" font-size="12.00">Germany</text>
<text text-anchor="middle" x="100" y="-24.4" font-family="Helvetica,sans-Serif" font-size="12.00">exposure 3.0m</text>
</g>
<g id="edge3" class="edge">
<title>L&#45;&gt;F</title>
<path fill="none" stroke="#4b5563" d="M97.64,-129.35C98.08,-112.8 98.68,-90.51 99.17,-72.53"/>
<polygon fill="#4b5563" stroke="#4b5563" points="101.63,-72.18 99.36,-65.11 96.73,-72.04 101.63,-72.18"/>
<text text-anchor="middle" x="153.5" y="-97" font-family="Helvetica,sans-Serif" font-size="10.00" fill="#374151"> owns 100%</text>
<text text-anchor="middle" x="153.5" y="-86" font-family="Helvetica,sans-Serif" font-size="10.00" fill="#374151"> (H is ultimate parent)</text>
</g>
<g id="node5" class="node">
<title>C</title>
<path fill="#fef3c7" stroke="#d97706" d="M170.5,-305C170.5,-305 27.5,-305 27.5,-305 21.5,-305 15.5,-299 15.5,-293 15.5,-293 15.5,-255 15.5,-255 15.5,-249 21.5,-243 27.5,-243 27.5,-243 170.5,-243 170.5,-243 176.5,-243 182.5,-249 182.5,-255 182.5,-255 182.5,-293 182.5,-293 182.5,-299 176.5,-305 170.5,-305"/>
<text text-anchor="middle" x="99" y="-290.4" font-family="Helvetica,sans-Serif" font-size="12.00">Coastal Packaging Ltd</text>
<text text-anchor="middle" x="99" y="-277.4" font-family="Helvetica,sans-Serif" font-size="12.00">independent owners,</text>
<text text-anchor="middle" x="99" y="-264.4" font-family="Helvetica,sans-Serif" font-size="12.00">70% of sales to Logistics</text>
<text text-anchor="middle" x="99" y="-251.4" font-family="Helvetica,sans-Serif" font-size="12.00">exposure 1.5m</text>
</g>
<g id="edge5" class="edge">
<title>C&#45;&gt;L</title>
<path fill="none" stroke="#d97706" stroke-dasharray="5,2" d="M50.93,-242.73C45.73,-237.47 41.18,-231.55 38,-225 30.65,-209.85 39.48,-195.26 52.37,-183.35"/>
<polygon fill="#d97706" stroke="#d97706" points="53.99,-185.18 57.68,-178.75 50.79,-181.47 53.99,-185.18"/>
<text text-anchor="middle" x="94.5" y="-217" font-family="Helvetica,sans-Serif" font-size="10.00" fill="#374151"> economic dependence</text>
<text text-anchor="middle" x="94.5" y="-206" font-family="Helvetica,sans-Serif" font-size="10.00" fill="#374151"> (main customer)</text>
</g>
</g>
</svg>
